<svg xmlns="http://www.w3.org/2000/svg" width="400" height="360" viewBox="0 0 400 360"><path d="M45.09,317.59q0,9.89-4.48,15.82a14.36,14.36,0,0,1-12.11,5.95A13.32,13.32,0,0,1,18,334.86V355H6.62V295.83H17.21L17.6,300a13.43,13.43,0,0,1,10.83-5q7.89,0,12.28,5.85T45.09,317Zm-11.41-.83c0-4-.71-7-2.11-9.2a6.89,6.89,0,0,0-6.15-3.24q-5.37,0-7.38,4.11v17.5q2.09,4.23,7.46,4.23Q33.67,330.16,33.68,316.76Z" fill="#ee7325"/><path d="M79,338.57a13,13,0,0,1-1.14-3.83A13.82,13.82,0,0,1,67,339.36a15.14,15.14,0,0,1-10.41-3.64,11.68,11.68,0,0,1-4.13-9.16q0-6.8,5-10.43t14.55-3.67h5.25V310a7,7,0,0,0-1.52-4.74,6,6,0,0,0-4.8-1.78,6.75,6.75,0,0,0-4.52,1.39,4.69,4.69,0,0,0-1.64,3.79H53.44a11.47,11.47,0,0,1,2.29-6.88,15.23,15.23,0,0,1,6.48-5,23.55,23.55,0,0,1,9.4-1.8q7.89,0,12.54,4t4.64,11.16v18.52c0,4.06.59,7.13,1.7,9.21v.67Zm-9.44-7.94a9.82,9.82,0,0,0,4.66-1.13,7.28,7.28,0,0,0,3.16-3v-7.35H73.07q-8.58,0-9.13,5.93l0,.67a4.6,4.6,0,0,0,1.51,3.52A5.83,5.83,0,0,0,69.51,330.63Z" fill="#ee7325"/><path d="M123.59,306.53a30.93,30.93,0,0,0-4.1-.31q-6.48,0-8.5,4.38v28H99.58V295.83h10.78l.32,5.1q3.43-5.9,9.52-5.89a12,12,0,0,1,3.55.51Z" fill="#ee7325"/><path d="M143.16,338.57H131.7V277.9h11.46Z" fill="#ee7325"/><path d="M175,339.36q-9.79,0-15.86-5.87T153,318.15v-1.23a25.32,25.32,0,0,1,2.49-11.39,18.09,18.09,0,0,1,7-7.76A19.81,19.81,0,0,1,173,295q8.82,0,13.83,5.41t5,15.41v5.05H164.61a10,10,0,0,0,3.79,6.89,13.15,13.15,0,0,0,8.14,2.36,24.13,24.13,0,0,0,5.9-.78,22.27,22.27,0,0,0,5.4-2l2.17,7.94a21,21,0,0,1-6.7,3A31.5,31.5,0,0,1,175,339.36Zm-2-35.12a7.24,7.24,0,0,0-5.55,2.33,11.76,11.76,0,0,0-2.74,6.56h15.92v-1q0-3.89-2-5.87A7.57,7.57,0,0,0,173,304.24Z" fill="#ee7325"/><path d="M211,295.83l.36,4.78A15,15,0,0,1,223.67,295q8.25,0,11.34,6.52,4.5-6.53,12.83-6.52,7,0,10.35,4t3.4,12.18v27.3H250.13V311.31q0-3.63-1.42-5.31t-5-1.68a7.12,7.12,0,0,0-7.11,4.9l0,29.35H225.21V311.35q0-3.71-1.46-5.37c-1-1.1-2.63-1.66-5-1.66a7.41,7.41,0,0,0-7,4v30.22H200.33V295.83Z" fill="#ee7325"/><path d="M292.76,339.36q-9.79,0-15.86-5.87t-6.06-15.34v-1.23a25.32,25.32,0,0,1,2.49-11.39,18.16,18.16,0,0,1,7-7.76A19.84,19.84,0,0,1,290.79,295q8.81,0,13.82,5.41t5,15.41v5.05H282.41a10,10,0,0,0,3.8,6.89,13.14,13.14,0,0,0,8.13,2.36,24.27,24.27,0,0,0,5.91-.78,22.35,22.35,0,0,0,5.39-2l2.17,7.94a21.09,21.09,0,0,1-6.69,3A31.63,31.63,0,0,1,292.76,339.36Zm-2-35.12a7.21,7.21,0,0,0-5.55,2.33,11.77,11.77,0,0,0-2.75,6.56h15.92v-1q0-3.89-2-5.87A7.61,7.61,0,0,0,290.79,304.24Z" fill="#ee7325"/><path d="M328.63,295.83l.36,4.94A14.91,14.91,0,0,1,341.27,295q6.8,0,10.12,4T354.78,311v27.61H343.37V311.24q0-3.64-1.58-5.28t-5.26-1.64a7.84,7.84,0,0,0-7.22,4.11v30.14H317.89V295.83Z" fill="#ee7325"/><path d="M379.12,285.32v10.51h7.31v8.37h-7.31v21.33a5.13,5.13,0,0,0,.91,3.4c.61.69,1.77,1,3.48,1a17.62,17.62,0,0,0,3.35-.28v8.65a23.27,23.27,0,0,1-6.91,1q-12,0-12.24-12.13v-23h-6.24v-8.37h6.24V285.32Z" fill="#ee7325"/><path d="M171.93,248q0,10.28-4.39,16T155.3,269.8a13.32,13.32,0,0,1-11.1-5.33l-.52,4.54H133.41V208.34h11.42v21.77a13,13,0,0,1,10.39-4.62q7.82,0,12.26,5.74t4.45,16.18Zm-11.42-.83q0-6.48-2-9.46a6.94,6.94,0,0,0-6.13-3q-5.45,0-7.5,4.46V256.1q2.1,4.5,7.58,4.5t7.27-5.45A28.22,28.22,0,0,0,160.51,247.21Z" fill="#ee7325"/><path d="M208.23,264.45q-4.23,5.13-11.7,5.14-6.87,0-10.48-3.95t-3.7-11.58v-28h11.42V253.7q0,6.68,6.08,6.68,5.81,0,8-4V226.06h11.46V268.8H208.54Z" fill="#ee7325"/><path d="M258.93,236.88a31.1,31.1,0,0,0-4.1-.32q-6.48,0-8.5,4.39v28H234.92V226.18H245.7l.32,5.09q3.43-5.88,9.52-5.88a12,12,0,0,1,3.55.51Z" fill="#ee7325"/><path d="M309,232.15H304.1a13.18,13.18,0,0,1,2.37,7.66v.87a12.81,12.81,0,0,1-5.18,10.39q-5.18,4.14-13.31,4.14a25.26,25.26,0,0,1-5.77-.63,3.45,3.45,0,0,0-1,2.41,2.28,2.28,0,0,0,1.12,2.15,7.77,7.77,0,0,0,3.62.7h7.9q7.11.07,11,3.18a10.52,10.52,0,0,1,3.91,8.74,10.72,10.72,0,0,1-2.87,7,19.6,19.6,0,0,1-7.86,5.37,30,30,0,0,1-11.2,2,35,35,0,0,1-10.31-1.38,16.16,16.16,0,0,1-6.93-3.91,7.89,7.89,0,0,1-2.47-5.61,9,9,0,0,1,2-5.69,13.86,13.86,0,0,1,5.57-4.1,7,7,0,0,1-1.78-4.9q0-4.5,4.58-7.51a15.25,15.25,0,0,1-6.06-5.15,12.59,12.59,0,0,1-2.15-7.17v-.87a12.74,12.74,0,0,1,5.13-10.53q5.13-4,13.43-4a27,27,0,0,1,6.64.79H309Zm-28.59,36.06a4.46,4.46,0,0,0-2.53,4.23,4.11,4.11,0,0,0,2.45,3.69,13.35,13.35,0,0,0,6.51,1.36A16.88,16.88,0,0,0,294.5,276q2.92-1.49,2.92-3.69c0-2.56-1.91-3.83-5.73-3.83l-9.32,0Zm.27-27.53a5.31,5.31,0,0,0,2,4.23A8.76,8.76,0,0,0,293,245a5.36,5.36,0,0,0,2-4.35v-.79a5.26,5.26,0,0,0-2-4.25,9,9,0,0,0-10.38,0,5.38,5.38,0,0,0-2,4.37Z" fill="#ee7325"/><path d="M339.1,269.53q-9.8,0-15.86-5.86t-6.07-15.35V247.1a25.4,25.4,0,0,1,2.49-11.4,18.27,18.27,0,0,1,7-7.76,19.86,19.86,0,0,1,10.43-2.72q8.81,0,13.83,5.41t5,15.4v5.06H328.75a10,10,0,0,0,3.79,6.89,13.15,13.15,0,0,0,8.14,2.35,24.66,24.66,0,0,0,5.9-.77,22,22,0,0,0,5.39-2l2.18,7.94a21.48,21.48,0,0,1-6.7,3A32,32,0,0,1,339.1,269.53Zm-2-35.11a7.23,7.23,0,0,0-5.55,2.32,11.83,11.83,0,0,0-2.74,6.57h15.91v-1c0-2.59-.65-4.54-1.95-5.87A7.61,7.61,0,0,0,337.12,234.42Z" fill="#ee7325"/><path d="M392.27,236.88a31.1,31.1,0,0,0-4.1-.32q-6.48,0-8.5,4.39v28H368.26V226.18H379l.32,5.09q3.43-5.88,9.52-5.88a12,12,0,0,1,3.55.51Z" fill="#ee7325"/><path d="M17.34,238.89a10.18,10.18,0,0,1,8.32-4.1q5.4,0,8.14,3.2t2.8,9.43V268H26.42V247.66a5.74,5.74,0,0,0-1.06-3.81,4.51,4.51,0,0,0-3.59-1.22c-2.09,0-3.56.66-4.43,2V268H7.19v-46.3H17.34Z" fill="#ee7325"/><path d="M61.33,268.61q-7.53,0-12.27-4.45a15.24,15.24,0,0,1-4.73-11.65v-.87a20,20,0,0,1,1.86-8.83,13.45,13.45,0,0,1,5.41-5.92,16.28,16.28,0,0,1,8.43-2.1q6.89,0,10.85,4.27t4,11.89v3.94H54.67q1,5.88,8.35,5.88a21.09,21.09,0,0,0,4.5-.56,17,17,0,0,0,4.27-1.43l1.6,6.81a19.54,19.54,0,0,1-5.52,2.22A27,27,0,0,1,61.33,268.61Zm-1.3-26q-4.52,0-5.36,5.91H64.92v-.79Q64.92,242.64,60,242.63Z" fill="#ee7325"/><path d="M93.86,227.29v8.1h5.37v7.06H93.86v14.92a3.76,3.76,0,0,0,.67,2.56,3.55,3.55,0,0,0,2.62.72,15,15,0,0,0,2.53-.18v7.26a18.55,18.55,0,0,1-5.73.88c-3.49,0-6.07-.83-7.74-2.47s-2.5-4.15-2.5-7.51V242.45H79.55v-7.06h4.16v-8.1Z" fill="#ee7325"/><path d="M66.55,182.08a256.76,256.76,0,0,1-32.34-1.29,2.42,2.42,0,0,0-1,.15l-.17,0-1,.14a3.81,3.81,0,0,0-1.7,1l0,0a3.16,3.16,0,0,0-2,3.85c.89,3.47,2.09,7,5.09,9.24,3.34,2.47,8,2.61,12,2.44,4.68-.19,9.3-1,14-1a132.39,132.39,0,0,1,13.78,1c4,.41,8.44,1.25,12.09-.85a7.43,7.43,0,0,0,3.43-9.09C85.45,179.05,73.47,181.91,66.55,182.08Z" fill="#98b7c9"/><path d="M85.09,153.53a37.78,37.78,0,0,0-15-6c-5.41-.89-11.78-1.18-16.52,2.07l-.44.34a11.74,11.74,0,0,0-2.41,1.46,9.84,9.84,0,0,0-3.5,8.91,21.88,21.88,0,0,0,3.22,9.06c1.64,2.73,3.72,5.58,6.91,5.81,4.7,1.56,9.91-.07,14.75.69,5.19.82,9.59,6,15.13,4,5.08-1.84,6.36-8.52,6.33-13.3C93.58,160.86,89.6,156.6,85.09,153.53Z" fill="#ee7325"/><path d="M102.38,137.54a12.2,12.2,0,0,0-7.33-2c-2.78.15-5.9,1.1-7.66,3.38,0,.07-.07.15-.12.22a3.11,3.11,0,0,0-.61.69,3.66,3.66,0,0,0-.21,2.79,8.83,8.83,0,0,0,.41,1.94,13.72,13.72,0,0,0,1.68,3.62,7.88,7.88,0,0,0,3.07,2.58,6.12,6.12,0,0,0,1.68.83c3.73,1.14,7.78-1.31,9.28-4.71a21.12,21.12,0,0,0,1.47-6.42A3.34,3.34,0,0,0,102.38,137.54Z" fill="#faeb98"/><path d="M24.88,130.05a3.58,3.58,0,0,0,2.13.42,3.75,3.75,0,0,0,.6.13,9,9,0,0,0,2.06-.24l0,0a6.3,6.3,0,0,0,1.05-.14,16.11,16.11,0,0,0,1.93-.63l4.18-1.44a3.44,3.44,0,0,0,2.34-2.34,3.39,3.39,0,0,0-.86-3.26l-2.8-3a7.29,7.29,0,0,0-.84-.74s0,0,0,0a5.17,5.17,0,0,0-.65-.83,7.9,7.9,0,0,0-.81-.62,4.68,4.68,0,0,0-2.07-.57,3.55,3.55,0,0,0-1.25.19,4.34,4.34,0,0,0-1.16.52,5.38,5.38,0,0,0-1.15,1,7,7,0,0,0-.91,1.27,17,17,0,0,0-.88,2.21,7.76,7.76,0,0,0-.92,2l-1.23,1.62a3.39,3.39,0,0,0-.34,2.59A3.48,3.48,0,0,0,24.88,130.05Z" fill="#faeb98"/><path d="M36.36,108.57c1.93,3.06,3.82,6.15,5.82,9.17s4.55,5.43,8.31,5.73a10.71,10.71,0,0,0,8.35-3.5,14.1,14.1,0,0,0,3.42-9.72c0-6.41-2.63-14.32-9.83-15.5-4.26-.7-9.78-.67-13.17,2.14a8.39,8.39,0,0,0-2.93,3,8.08,8.08,0,0,0-1,4.32,9.59,9.59,0,0,0,.63,2.89A2.91,2.91,0,0,0,36.36,108.57Z" fill="#9a805f"/><path d="M89.05,129.22a6,6,0,0,0,5.14-3.43,17.6,17.6,0,0,0,1.24-5.93,36.29,36.29,0,0,0,.25-5.21A16.94,16.94,0,0,0,92,104a19.73,19.73,0,0,0-4.77-3.79,29.9,29.9,0,0,0-5.62-2.9,10.29,10.29,0,0,0-5.3-.43l-.24,0A4.21,4.21,0,0,0,73.35,98l-.09.09a8.76,8.76,0,0,0-2.57,2.48,6.59,6.59,0,0,0-.33.65c-.19.25-.41.47-.59.74a10.67,10.67,0,0,0-1.26,2.72,11.94,11.94,0,0,0-.34,2,4.69,4.69,0,0,0,0,.53,7.5,7.5,0,0,0,.22,4.16c1.32,3.81,4.94,5.41,8.09,7.42a25.88,25.88,0,0,1,7.25,7C85,127.64,86.59,129.27,89.05,129.22Z" fill="#faa648"/><path d="M133.09,96.66A6.63,6.63,0,0,0,126,97c-2.43,1.52-4.8,3.15-7.19,4.72-4.81,3.16-9.77,6.14-12.29,11.56-1,2.14-1.69,4.6-3.2,6.46s-4.17,1.9-6,3.49a3,3,0,0,0-.91,2.68,5.43,5.43,0,0,0-.37.91,4.5,4.5,0,0,0,4,5.69c2.73.27,4.49-1.82,6.69-3a39,39,0,0,1,5.47-2.29c4.37-1.61,8.53-3.44,11.46-7.21,1.45-1.86,2.57-4,4.29-5.63s3.87-2.74,5.54-4.43C137,106.28,138.17,99.73,133.09,96.66Z" fill="#98b7c9"/><path d="M104.38,105.19a13.92,13.92,0,0,0,8.88-3.09,34.74,34.74,0,0,0,3.59-3c1.47-1.41,3.19-3,3.25-5.16.11-3.37-3.38-5.76-6.12-7.05a25.68,25.68,0,0,0-9-2.23,53.57,53.57,0,0,0-8.21.1A10,10,0,0,0,92,85.8a5.19,5.19,0,0,0-2.12,5.89,5.7,5.7,0,0,0,1.67,2.63,7.64,7.64,0,0,0,.34.71c.44.75.9,1.51,1.38,2.24.33.5.72,1,1.08,1.42C96.65,102.17,99.83,104.9,104.38,105.19Zm-.87-7.53a3.85,3.85,0,0,0,.56.78h0l-.36-.1c0-.13,0-.26-.08-.39l-.12-.28Z" fill="#f3c7ba"/><path d="M86.79,61a8.23,8.23,0,0,0,7.63-3.51l0-.09a8.72,8.72,0,0,0,1.94-1.7,8,8,0,0,0,1.82-7.41,7.7,7.7,0,0,0-5.26-5,9.3,9.3,0,0,0-6.86.75,13.61,13.61,0,0,0-5,4.91,11.75,11.75,0,0,0-1.65,3.42A6.38,6.38,0,0,0,80.07,57,8.42,8.42,0,0,0,86.79,61Zm5.07-10.8h0Zm0,.08h0v0Zm0-.13h0v0h0Zm0,.06,0,0h0l0,0Zm0,.14h0v.05h0v0s0,0,0,0v0a1.05,1.05,0,0,1,0,.19l0-.06h0l0,.08v0h0l-.12.21a1.67,1.67,0,0,1,.13-.23.71.71,0,0,1,0-.26v-.17S91.81,50.31,91.82,50.34Zm-.2-.37.11.1h0v0l.06.05h0v0h0l0,0h0l0-.06L91.58,50Zm-.12-.12h0l0,0Z" fill="#ee7325"/><path d="M91.74,50.67v0h0v.05Z" fill="#803c2f"/><path d="M91.81,50.43a.43.43,0,0,0,0,0v0l0,0A.08.08,0,0,1,91.81,50.43Z" fill="#803c2f"/><path d="M91.77,50.15a.16.16,0,0,0,0-.07h0a.21.21,0,0,0,0,.07Z" fill="#dcc5b7"/><path d="M113.22,45.37c2.89-.82,5.65-2,8.57-2.75s5.93-1.34,8.91-1.91c5.77-1.1,11.6-2.11,17.13-4.12,4.42-1.61,12.73-4.44,12.58-10.26-.14-5.43-5.37-8.59-10.12-9.49A38.28,38.28,0,0,0,132,18c-6.48,2.14-12.51,6.05-18.52,9.25-2.88,1.53-6,2.9-8.76,4.71-.13.09-.22.19-.34.28l-.5.12a6,6,0,0,0-3.53,2.58,5.43,5.43,0,0,0-.74,2.6,3.67,3.67,0,0,0,.73,2.23C102.3,44.84,107.92,46.88,113.22,45.37Z" fill="#98b7c9"/><path d="M156,61.35c-2.58-3.13-7.36-8.62-11.84-8.05l-.12,0h-.18a6.36,6.36,0,0,0-1.3.18,4.55,4.55,0,0,0-1.52.69l-.11.1-.52.23a4.68,4.68,0,0,0-.75.43,2.9,2.9,0,0,0-1,.88,2.5,2.5,0,0,0-1,1.11c-2.79,6.57-2.25,13.3-1.08,20.18A76.21,76.21,0,0,1,138,87.69c.09,3.14.59,6.09,3.15,8.18,5.33,4.34,12.05,1.31,16.89-2.15,2.47-1.77,4.91-3.84,6.25-6.62a12.9,12.9,0,0,0,.41-9.43A45.42,45.42,0,0,0,156,61.35Z" fill="#ee7325"/><path d="M135.08,44a16,16,0,0,0-5.35.09c-3.47.72-7,4.11-6.48,7.9a3.69,3.69,0,0,0,1,2.37,3.41,3.41,0,0,0,2.37,1c.15,0,.29-.07.43-.09a14.16,14.16,0,0,0,3.78.25,9.72,9.72,0,0,0,2.4-.47l.21-.1a13.2,13.2,0,0,0,7.33-4.18,3.38,3.38,0,0,0,0-4.74,7.12,7.12,0,0,0-2.89-1.58A21.73,21.73,0,0,0,135.08,44Z" fill="#faa648"/><path d="M175.11,37.81a21,21,0,0,0-3.67.57,54.59,54.59,0,0,1-6.26.61,21.52,21.52,0,0,0-6.62-.82,42,42,0,0,0-6.62.66,4.49,4.49,0,0,0-3.57,5.55c.5,1.95,2.07,3.42,3.55,4.69a33.6,33.6,0,0,0,4.55,3.3,55.92,55.92,0,0,0,10.14,4.55c3.26,1.15,7.73,3.39,11,1.42,4-2.34,2.65-7.88,2.41-11.64-.14-2.14.08-4.79-1.1-6.68A4.68,4.68,0,0,0,175.11,37.81Zm-21.56,7.52c-.37.07-.36.06,0,0h0Zm19.59-2.13s0,.08,0,.12v0C173.07,43.28,173.19,42.78,173.14,43.2Zm.11,1.63c0,.1,0,.19,0,.28,0-.08-.1-.17-.15-.25Zm-3.13.7h0Z" fill="#98b7c9"/><path d="M162.59,19.28l.08.06.36.29.83.72c.52.47,1,1,1.49,1.48.12.59.21,1.19.34,1.78.34,1.56.73,3.11,1.15,4.66s.9,3.47,2.23,4.69c2.84,2.64,7.07,1.65,9.79-.57A11.42,11.42,0,0,0,182.67,24a24.38,24.38,0,0,0-2-9.68c-1.31-3.32-3.59-5.9-7.26-6.5-3.18-.52-6.44-.09-9.63.1-2.18.13-4.31.28-5.64,2.27a5.12,5.12,0,0,0,.2,5.62C159.4,17.37,161.08,18.21,162.59,19.28Z" fill="#9a805f"/><path d="M181.2,70.17a13.09,13.09,0,0,0-5.16-7,20.46,20.46,0,0,0-3-1.65,9.72,9.72,0,0,0-4.49-1.36c-3.63.15-5.7,3.84-5.13,7.16.5,2.88,2.72,5.33,4,7.91a35.08,35.08,0,0,1,2.66,8.11,2.84,2.84,0,0,0,.28.72l.09.66a3.77,3.77,0,0,0,1,1.69,6.33,6.33,0,0,0,1.72,1.22,8.73,8.73,0,0,0,1.42.56,9.58,9.58,0,0,0,1.58.24,5.16,5.16,0,0,0,1.24,0,6,6,0,0,0,3.89-1.51c2.52-2.19,2.55-5.56,1.9-8.58A83.44,83.44,0,0,0,181.2,70.17Z" fill="#faa648"/><path d="M192.88,35.08c-6.41-1.17-6.27,6-6.8,10.37a49.94,49.94,0,0,0-.55,9.14c.2,3,.71,6,1.13,9,.13,1,.27,2,.41,3a23.62,23.62,0,0,0,.07,4.52,22.29,22.29,0,0,0,1.29,5.36l.87,6.32c.25,1.79,2.54,2.78,4.12,2.34a2.91,2.91,0,0,0,.61-.31h0a4.45,4.45,0,0,0,.66-.07,4.13,4.13,0,0,0,.66-.11s0,0,.08,0c.31-.12.66-.26,1-.4l.14-.08.08-.06c.26-.2.55-.41.81-.63l.12-.11.14-.18a4.32,4.32,0,0,0,.72-.65c1.7-1.93,1.45-5.14,1.6-7.55.34-5.62-.09-11.21.14-16.82.2-5,3.23-9.54,1.75-14.61A12.07,12.07,0,0,0,192.88,35.08Z" fill="#f3c7ba"/><path d="M207.92,33.36c4-.82,6.21-4.1,7.16-7.83s1.64-8.22-.79-11.66a20.38,20.38,0,0,0-8.58-6.53A27.07,27.07,0,0,0,194.85,5c-2,0-4.45,0-6,1.46a5,5,0,0,0-1.39,4.72,27,27,0,0,0,2.24,11.34c1.21,2.95,2.79,6.53,5.55,8.23A9.18,9.18,0,0,0,196.78,32a12.48,12.48,0,0,0,5.87,1.52A19,19,0,0,0,207.92,33.36ZM195.84,11.84v-.1h0A.38.38,0,0,1,195.84,11.84Zm3,12-.2-.34c.1.13.22.27.31.4l.09.14Z" fill="#faa648"/><path d="M236.11,60.29c1.89-7.07,3.84-14.24,5.13-21.45.56-3.14,0-6.8-3.39-8a13.46,13.46,0,0,0-5.1-.3l-2.52.11a29.65,29.65,0,0,0-8.88.27,3.16,3.16,0,0,0-2.47.73,14,14,0,0,0-3.31,1.75,15.1,15.1,0,0,0-4.78,5.9,10.43,10.43,0,0,0-3.63,5.4c-1,3.28-1.2,6.89-1.69,10.28-.55,3.8-1.28,7.61-1.65,11.44s2.69,6.1,6.26,6c3.74-.14,7.51-.7,11.24-1.05,3.46-.32,7.86,0,10.68-2.32C234.6,66.87,235.28,63.37,236.11,60.29Z" fill="#ee7325"/><path d="M204.79,78.21a3.41,3.41,0,0,0,0,4.74,3.58,3.58,0,0,0,2.57.93,4,4,0,0,0,1.86.49,8.31,8.31,0,0,1,1.32,0,3.48,3.48,0,0,1,.44.1h.1a10.37,10.37,0,0,0,6.63.51,3.38,3.38,0,0,0,2-4.92A9.79,9.79,0,0,0,204.79,78.21Z" fill="#faeb98"/><path d="M233.88,71.52a8.63,8.63,0,0,0-2.67,1.11,2.36,2.36,0,0,0-1.13.16A9,9,0,0,0,224.84,78a8.34,8.34,0,0,0,.33,6.69,8.9,8.9,0,0,0,5.33,4.43,9.58,9.58,0,0,0,7.26-1c1-.49,1.94-1,2.9-1.55a26.53,26.53,0,0,0,2.93-1.69,6.77,6.77,0,0,0,2.72-7.5C244.82,72.2,238.66,70.5,233.88,71.52Zm-2.77,10.09a2,2,0,0,0-.07-.23.65.65,0,0,1,.08.25Zm.26-1.78h0l.05,0Zm.86,2.82,0,0a.56.56,0,0,1,.24.1Zm.52.14-.27-.06a.61.61,0,0,1,.33.06Zm1.18-3.42v-.08a.43.43,0,0,1,.06.18l-.06-.06Zm0,.26a.41.41,0,0,0,0-.1v0l0,.05S234,79.61,234,79.63Zm0-.15h0v0Zm1.7-1.48.25,0h0C235.74,78,235.65,78,235.66,78Zm4.21,1.4h0v0h0Zm0-.07h0v0h0Z" fill="#9a805f"/><path d="M244.09,54.29a23.76,23.76,0,0,0,2.3,9.15,14.85,14.85,0,0,0,5.51,6.06c2.73,1.65,5.9,2,9,2.45,7.62,1.06,15.68,3,23.32,1.23,2-.45,3.26-3.18,2-4.92a77.53,77.53,0,0,0-14.55-15.45c-6.12-4.86-12.87-8.92-19.42-13.18a3.31,3.31,0,0,0-.56-.29,3.18,3.18,0,0,0-1.38-.67,4.59,4.59,0,0,0-4.75,1.63,6.64,6.64,0,0,0-1.24,2.82,21.43,21.43,0,0,0-.43,5.42c0,.35.08.7.12,1.06C244,51.16,244,52.73,244.09,54.29Z" fill="#faa647"/><path d="M266.05,78.21a8.65,8.65,0,0,0-3.19-1.6,3.16,3.16,0,0,0-.66-.44,13.9,13.9,0,0,0-1.43-.6,5.6,5.6,0,0,0-1.16-.27,15,15,0,0,0-1.52-.19,6.79,6.79,0,0,0-1.49.15,4.71,4.71,0,0,0-1.3.47l-.23.13a5.78,5.78,0,0,0-.92.73,4.85,4.85,0,0,0-.82,1.17,22,22,0,0,0-4.23,7.46,11,11,0,0,0,2,10.17,19.19,19.19,0,0,0,7.16,4.94,8,8,0,0,0,5.28.58,6.36,6.36,0,0,0,4.17-4.11,14.57,14.57,0,0,0,.59-4.36l.21-5.09C268.66,84.06,268.91,80.5,266.05,78.21Zm-10.69,9.68h0a2.21,2.21,0,0,0,0-.25S255.39,87.74,255.36,87.89Z" fill="#f3c7ba"/><path d="M246.32,24.57a29.37,29.37,0,0,0,2.3,7.26,21.27,21.27,0,0,0,4.72,5.64c1.8,1.65,3.86,3.32,6.33,3.79,5,.94,8.73-2.51,10.92-6.62a19.41,19.41,0,0,0,2.44-7,7.27,7.27,0,0,0-3.68-7c-2.4-1.52-5-2.74-7.55-4.09l-8.13-4.36a3.59,3.59,0,0,0-1.62-.42l0,0-.15-.07c-.34-.15-.69-.3-1-.43l-.3-.09a9.6,9.6,0,0,0-1.31-.18,1.71,1.71,0,0,0-.32,0,11.44,11.44,0,0,0-1.31.17,2.91,2.91,0,0,0-1.31.69,2.86,2.86,0,0,0-1,1.08,3,3,0,0,0-.46,1.43s0,.08,0,.11a3.62,3.62,0,0,0-.24,2.26Q245.44,20.65,246.32,24.57Zm13,4,0,0h0Zm0,0h0l0,0S259.26,28.62,259.27,28.61Z" fill="#98b7c9"/><path d="M272.14,46a7.62,7.62,0,0,0,1.65,4.13,27.24,27.24,0,0,0,4.55,5.21c3.58,2.9,8.81,4,12.69,1,1.91-1.49,2.43-3.78,3.21-5.61.36-.85.32-.64,1-1.08a16.94,16.94,0,0,0,2.67-1.85c2.09-2,2.31-4.74,1.49-7.36a53.25,53.25,0,0,0-2.63-6.9c-2-4.22-5.52-8.11-10.19-9.28a7.23,7.23,0,0,0-5.52.47,3.71,3.71,0,0,0-2.4,2.33L273,42.18A9.76,9.76,0,0,0,272.14,46ZM287,51h0S287,51,287,51Z" fill="#9a805f"/><path d="M307.28,139c6-2.88,5.46-10.32,2.94-15.38a41,41,0,0,0-6-8.15c-2.14-2.48-4.3-5-6.55-7.35a64.47,64.47,0,0,0-15.81-12.77,3.21,3.21,0,0,0-2.38-.32,5.17,5.17,0,0,0-1-.07,9.56,9.56,0,0,0-1.31.16,2.57,2.57,0,0,0-.38.08,7.27,7.27,0,0,0-2.78,1.55,4.27,4.27,0,0,0-.47.48,7.06,7.06,0,0,0-1,1.34,2.84,2.84,0,0,0-.45,1.43,3,3,0,0,0,0,.42,5,5,0,0,0-.17,1.46c.13,4.54,4.41,9,7.51,11.87,3.27,3,6.94,5.66,10,9a16.67,16.67,0,0,1,3.1,4.55c1,2.27,1,4.81,1.93,7.09A9.27,9.27,0,0,0,307.28,139Z" fill="#ee7325"/><path d="M336.77,105.09c-5,.79-10.55.13-15.07,2.64-3.71,2-9.58,7.79-7.42,12.45,2.44,5.27,9.13,3.52,13.12,1.5,5.18-2.63,10.11-5.82,15.15-8.7a27.53,27.53,0,0,1,7.12-3.22c3-.76,6.24-.62,9.21-1.63a5.44,5.44,0,0,0,4-5,16,16,0,0,0-1.27-8.22c-1.12-2.31-3.45-4.26-6.14-4.15-3,.12-4.29,2.67-6,4.7A39.85,39.85,0,0,1,336.77,105.09Zm19-6.76a.31.31,0,0,0,0,.08l-.08,0Z" fill="#98b7c9"/><path d="M357.13,113.65a8.6,8.6,0,0,0-2.59-.47,2.71,2.71,0,0,0-.85-.09,12.3,12.3,0,0,0-3.24.56,11.4,11.4,0,0,0-3,1.44,9.56,9.56,0,0,0-2.9,2.87,6,6,0,0,0-.61,1.51,3.39,3.39,0,0,0-.11,2.23,5.41,5.41,0,0,0,.63,2,3.43,3.43,0,0,0,.56.71c.87,1.82,1.73,3.63,2.65,5.42,1.23,2.41,2.4,5.32,4.85,6.74A7.06,7.06,0,0,0,361,135c2.06-2.23,2.61-5.18,2.88-8.1a16,16,0,0,0-1-7.81A9.89,9.89,0,0,0,357.13,113.65Z" fill="#9a805f"/><path d="M368,156.48a15.9,15.9,0,0,1-.53-1.91.78.78,0,0,1,0-.19,6.55,6.55,0,0,1,0-1c0-.1.08-.46.09-.53.08-.38.18-.75.27-1.12.17-.68.36-1.36.5-2.05a11.36,11.36,0,0,0,0-5.09,3.16,3.16,0,0,0-.44-.88,3.87,3.87,0,0,0-3.7-2.95,29.14,29.14,0,0,0-16.43,4.85,18.6,18.6,0,0,0-2.83,2.28,13.08,13.08,0,0,0-4.63,5,11.22,11.22,0,0,0,2.64,13.54,12.8,12.8,0,0,0,7.61,2.79c2.61.21,5.26.39,7.87.45a13.28,13.28,0,0,0,7.25-1.56,7.73,7.73,0,0,0,3.38-8.11A22.38,22.38,0,0,0,368,156.48Z" fill="#f3c7ba"/><path d="M46.87,88.55a2.58,2.58,0,0,0,1.64,1l5.92.89a45.61,45.61,0,0,1,5.94.94c1.46.42,2.47,1.66,3.92,2.18a10.57,10.57,0,0,0,5.9,0c3.65-.78,7.38-1.53,11-2.57,3.35-1,6.34-2.75,8.11-5.85a27.21,27.21,0,0,0,3-10.29,10.07,10.07,0,0,0-3.63-9.28c-2.7-2.11-6.42-3.43-9.7-4.38-3.72-1.07-7.71-1.22-11.25.56S60.89,67,58,69.81s-5.78,5.84-8.49,8.93c-.28.21-.56.43-.82.65a5.51,5.51,0,0,0-.79.81,9,9,0,0,0-1.15,1.65,8.42,8.42,0,0,0-1,4,4,4,0,0,0,1.13,2.72Z" fill="#98b7c9"/><path d="M99.39,73.68a5.41,5.41,0,0,0,1.76,4.49,17.45,17.45,0,0,0,4.62,2.53c1.79.82,3.58,1.61,5.39,2.38a68.43,68.43,0,0,0,10.5,3.59c3.32.79,8.31,2.24,10.36-1.52.86-1.57.59-3.58.57-5.3,0-1.89,0-3.79-.06-5.68a27.65,27.65,0,0,0-1.84-10.55c-2.71-6.3-9.1-9.38-15.09-11.88-3.42-1.42-7.08-1.66-10.22.58A17.41,17.41,0,0,0,99.5,60.6a9.34,9.34,0,0,0-.46,5c-.05.46-.11.91-.13,1.36A34.08,34.08,0,0,0,99.39,73.68Zm28.17,7.24s.07,0,.1,0l-.1,0Zm-7.76-5.69,0,0C120,75.62,119.71,75.28,119.8,75.23ZM119.31,61l-.07,0-.19-.18Z" fill="#faeb98"/><path d="M221,22.17c.13.18.29.33.43.5A6.45,6.45,0,0,0,225.15,26a7.89,7.89,0,0,0,5-.06,9.56,9.56,0,0,0,4.34-2.83,10.72,10.72,0,0,0,1.64-2.47,10.85,10.85,0,0,0,.95-3.48,7.57,7.57,0,0,0-4.72-7.65l-.06,0a12.24,12.24,0,0,0-5.76-1.32c-2.42.11-5,.88-6.19,3.18a10.33,10.33,0,0,0-.88,5.38A10.17,10.17,0,0,0,221,22.17Zm9.33-5.58a.61.61,0,0,1,0,.14h0a.8.8,0,0,0,0-.15Z" fill="#faeb98"/><path d="M286.29,75.3a11.49,11.49,0,0,0-4.72,3.77A8.09,8.09,0,0,0,280,80.64a6.88,6.88,0,0,0-.73,7.72c1.57,2.52,4.39,3.15,7.17,3.11a10.78,10.78,0,0,1,2.67,0c1.17.31,2.13,1.44,3.1,2.1A12.93,12.93,0,0,0,299,95.71,13.88,13.88,0,0,0,311.33,89c1.18-2.09,1.43-5.07,3-6.87.89-1,2.37-1.4,3.32-2.43a5.34,5.34,0,0,0,1.25-5.22,3.43,3.43,0,0,0-3.23-2.46l-5.77.35a65.86,65.86,0,0,0-13.17-.14,7.65,7.65,0,0,0-5.85,1c-.36.19-.71.41-1.08.6l-.51.25-.15.06C288.21,74.52,287.24,74.88,286.29,75.3Z" fill="#98b7c9"/><path d="M298.26,54a10.54,10.54,0,0,0-1.2.51,5.21,5.21,0,0,0-1.26,1l-.33.43a3.35,3.35,0,0,0-.79,1.33,12,12,0,0,0-.5,5.83,6.8,6.8,0,0,0,3.55,4.56,14.62,14.62,0,0,0,5.08,1.32l5.31.64a3.16,3.16,0,0,0,2.63-1.32,3.26,3.26,0,0,0,.6-2.92,20.44,20.44,0,0,0-6.25-9.81,3.89,3.89,0,0,0-1.75-.91h0l-.33-.16a8.89,8.89,0,0,0-1.2-.49,6.62,6.62,0,0,0-3.25-.06Z" fill="#f3c7ba"/><path d="M302.1,46.8c0,.2,0,.42.09.63s0,.15.06.23A3,3,0,0,0,303.8,50a1.4,1.4,0,0,0,.17.09,2.82,2.82,0,0,0,.72.4c9.2,5,13.16,16.24,20.26,23.63,2.09,2.17,4.85,5,8.06,5,5,0,5.61-5.32,4.27-9-1.18-3.23-3.39-6-5.38-8.74s-3.93-5.29-6.07-7.79A46.87,46.87,0,0,0,311.46,42a3.82,3.82,0,0,0-1.07-1,4.74,4.74,0,0,0-1.3-.58l-.22,0c-.36-.06-.74-.11-1.11-.15h-.36c-.36,0-.73.09-1.09.15a.32.32,0,0,0-.14,0,.81.81,0,0,0-.22.07c-.33.12-.66.27-1,.41l-.13.06-.19.12c-.29.21-.58.44-.85.66l-.09.08a1.29,1.29,0,0,0-.16.17,9.65,9.65,0,0,0-.74,1,5.71,5.71,0,0,0-.3.67,5.2,5.2,0,0,0-.27.69,2.1,2.1,0,0,0-.06.24c-.06.37-.11.74-.15,1.1,0,0,0,.1,0,.15a2.8,2.8,0,0,0,0,.29C302,46.37,302.08,46.59,302.1,46.8Z" fill="#faeb98"/><path d="M302.05,105.74a.2.2,0,0,1,.08,0c1.86,2.64,3.8,5.22,5.87,7.69a3.3,3.3,0,0,0,3.26.87A3.55,3.55,0,0,0,313.6,112l2.34-5.8c1-2.38,2.2-4.82.87-7.34-1.23-2.34-3.86-3-6.28-2.58a6.32,6.32,0,0,0-1.56.5,37.92,37.92,0,0,0-6.48,1.45,3.81,3.81,0,0,0-2.49,2.22,3.66,3.66,0,0,0,.2,3.43A7,7,0,0,0,302.05,105.74Z" fill="#faa648"/><path d="M367.22,122.75a38.44,38.44,0,0,0,1.59,9.07c1.1,3.35,2.49,6.58,2.6,10.16s-.42,7.25.74,10.65c1,2.93,3.42,5.64,6.75,5.54,3.11-.09,5.3-2.57,6.08-5.41.89-3.23.12-6.81-.73-10-.94-3.5-2.23-6.93-3.45-10.34a99.33,99.33,0,0,0-8-17.82,14.18,14.18,0,0,0-2.17-4.48A3.46,3.46,0,0,0,366,109a3.18,3.18,0,0,0-.61.5,3.67,3.67,0,0,0-1.81,3.21c.07,3,1.52,5.64,2.78,8.31C366.68,121.57,367,122.16,367.22,122.75Z" fill="#faa648"/><path d="M336.8,159.85c0-1.48,0-3-1.18-4.15a4.41,4.41,0,0,0-3-1.24,10.51,10.51,0,0,0-1.76.25,15.46,15.46,0,0,0-4.18,1.55,18.45,18.45,0,0,0-2.35,1.52c-.75.33-1.5.7-2.26,1-2.38.93-5,1.52-7.46,2.25a5.68,5.68,0,0,0-1.94,2c-.85,1.55-.73,3.44-.75,5.15s0,3.59,0,5.39c.09,3.37.31,6.74.66,10.09.18,1.75.41,3.5.65,5.24a20.74,20.74,0,0,0,.95,5.22c1.65,3.91,6.13,2.39,9.32,1.85,2.94-.5,6.66-.55,8.89-2.8s2.31-5.5,2.71-8.33a171,171,0,0,0,1.73-24.23,3.31,3.31,0,0,0-.06-.55A1.11,1.11,0,0,0,336.8,159.85Zm-11.12,29c.1-.09.19-.2.29-.29a4.22,4.22,0,0,0,.94.08A5.85,5.85,0,0,1,325.68,188.85Z" fill="#98b7c9"/><path d="M81.77,135.2c-1.49-2.87-2.82-5.89-4.85-8.42a10.65,10.65,0,0,0-8.77-4,55.34,55.34,0,0,0-10,1.77A12.43,12.43,0,0,0,52.85,127a8.09,8.09,0,0,0-.76.31,7.44,7.44,0,0,0-3.84,6.08,7.53,7.53,0,0,0,2.39,6.12c2,1.78,4.53,2.08,7.08,2.43l17.72,2.47c.12,0,.24,0,.36,0a3.72,3.72,0,0,0,1.06.15,5,5,0,0,0,1.34,0,3.91,3.91,0,0,0,.83-.15,7.09,7.09,0,0,0,1-.43.71.71,0,0,0,.15-.08,5,5,0,0,0,1.7-1.75,4.81,4.81,0,0,0,.42-3.49,4.4,4.4,0,0,0-.21-.5A4,4,0,0,0,81.77,135.2Z" fill="#98b7c9"/><path d="M25.56,150.39a6,6,0,0,0,2.85.9,2.69,2.69,0,0,0,1.19-.2l.27,0a33,33,0,0,0,5.08.11,15.34,15.34,0,0,0,3.88.22,7,7,0,0,0,4.37-1.73,6.09,6.09,0,0,0,.46-.55,3.72,3.72,0,0,0,.72-.55,2,2,0,0,0,.29-.29c.23-.28.47-.59.69-.89,0-.06.07-.12.11-.17A8,8,0,0,0,46,146a2.62,2.62,0,0,0,.11-.4,9,9,0,0,0,.17-1.37V144c0-.39-.1-.78-.16-1.17a2.74,2.74,0,0,0-.09-.39,7.4,7.4,0,0,0-.55-1.26c-.08-.14-.22-.22-.32-.35-1.56-4.27-4.72-8.09-9.45-8.64a8.58,8.58,0,0,0-7.12,2.84,6.66,6.66,0,0,0-2.53,1.49A11.35,11.35,0,0,0,22.59,144a7.79,7.79,0,0,0,1,4.35A6.41,6.41,0,0,0,25.56,150.39Z" fill="#f3c6ba"/><path d="M44.71,164.46a4.08,4.08,0,0,0,.07-1,6.66,6.66,0,0,0-.76-2.67,7.79,7.79,0,0,0-1.15-1.58c-.25-.28-.52-.53-.79-.78a4,4,0,0,0-1.86-1,5.59,5.59,0,0,0-4.8-.18A6.76,6.76,0,0,0,33,159.09a13.56,13.56,0,0,0-1.72,2.27c-1,1.84-.93,3.86-.93,5.9,0,1.64,0,3.27,0,4.91a4.12,4.12,0,0,0,.23,1.21c0,.05,0,.09,0,.14a3.87,3.87,0,0,0,1.13,2.71l.78.6a3.77,3.77,0,0,0,1.94.53A8.84,8.84,0,0,0,42,175a9.45,9.45,0,0,0,2.33-6.85,10.83,10.83,0,0,0,.12-2.41.43.43,0,0,0,0,0,1.63,1.63,0,0,0,.09-.19A4.31,4.31,0,0,0,44.71,164.46Z" fill="#faa647"/><path d="M26.69,158.6a5.39,5.39,0,0,0-5-4.12,5,5,0,0,0-1.29.18,4,4,0,0,0-.76.1,16.51,16.51,0,0,0-1.91.88,15,15,0,0,0-1.66,1.21c-.12.09-.21.21-.32.31-2.17,1.59-3.38,4.6-3.9,7.22-.87,4.29-1.8,8.57-2.57,12.87-.61,3.39-1.06,7-.17,10.39a6.66,6.66,0,0,0,1.09,3.51,8.62,8.62,0,0,0,2,2.08,7.47,7.47,0,0,0,6.59,2.35A5.1,5.1,0,0,0,22,195a5.42,5.42,0,0,0,2.42-3.45,12.87,12.87,0,0,0,1.48-6.74c-.21-4.41-.6-8.67-.13-13.09S27.93,162.93,26.69,158.6Z" fill="#9a805f"/><path d="M364.32,179.08a7.09,7.09,0,0,0-2.79-3.41,9.61,9.61,0,0,0-4.77-1.09c-2.9-.05-6.16-.37-9,.57a12.7,12.7,0,0,0-7.08,5.9,14.44,14.44,0,0,0-1.65,7.51,5.62,5.62,0,0,0,1.06,5.25c1.91,2.22,5.15,1.59,7.75,1.65,1.41,0,2.83.11,4.23.24q1,.09,1.95.21a3.88,3.88,0,0,0,1.47.32c.21,0,.41,0,.62,0l.15,0A3.59,3.59,0,0,0,358,196a34.86,34.86,0,0,0,4.9-.1,4.73,4.73,0,0,0,1.65-.49h.25a4,4,0,0,0,2.81-1.26c.05,0,.12-.07.17-.12a4.44,4.44,0,0,0,1.28-3.22,9.52,9.52,0,0,0-1.15-3.44C366.7,184.62,365.53,181.84,364.32,179.08Z" fill="#faa648"/><path d="M393.12,177.92a19.49,19.49,0,0,0-.65-2.84,3.7,3.7,0,0,0-.29-.89.05.05,0,0,0,0,0,16.78,16.78,0,0,0-7.31-9.07,10.41,10.41,0,0,0-2.31-1.58,7.28,7.28,0,0,0-5.63-.52,9.45,9.45,0,0,0-3.87,2.56,10.38,10.38,0,0,0-2.29,9.23,15.75,15.75,0,0,0,1.36,3.67,127.71,127.71,0,0,0,1.4,15.23,3.67,3.67,0,0,0,3.1,2.75c0,.06,0,.12.05.18l5.6.35c2.13.14,4.36.35,6.2-1a5.45,5.45,0,0,0,.5-.46,5.63,5.63,0,0,0,1.08-.63c1.7-1.32,2.09-3.42,2.48-5.4A34.64,34.64,0,0,0,393.12,177.92Z" fill="#ee7325"/><path d="M336.82,144.86a9.16,9.16,0,0,0,5.51-5.54,11.25,11.25,0,0,0-.69-7.9c-1.05-2.49-2.21-5.13-5.12-5.71-2.64-.53-6.33.69-8.65,2a11.78,11.78,0,0,0-2.18,1.57,73.54,73.54,0,0,0-8.15,5c-2.54,1.78-5.16,3.58-7.52,5.6a20.54,20.54,0,0,0-2.32,2.43q-.63.4-1.23.84l-.27,0a5.46,5.46,0,0,0-.67.26,2.79,2.79,0,0,0-1,.57,3.45,3.45,0,0,0-.51.42,4.81,4.81,0,0,0-1.1,1.89,5.88,5.88,0,0,0-.22,1.32c0,.13,0,.27,0,.4,0,.74.15,1.48.23,2.21a2.9,2.9,0,0,0,.33,1.48,3,3,0,0,0,.78,1.22,5.23,5.23,0,0,0,.95,1.11,2.27,2.27,0,0,0,.32.22,2.18,2.18,0,0,0,.23-.09,4.52,4.52,0,0,0,2.5,1c5.21.45,9.93-2,14.41-4.37S332.05,146.92,336.82,144.86Z" fill="#faeb98"/><path d="M335.7,83l-.41.19-.64.25a14.55,14.55,0,0,1-1.47.42l-.63.13-.42,0a9.15,9.15,0,0,1-1.57,0l-.23-.06-.74-.2c-2.46-.75-4.57-1.87-7.21-1.94a3.87,3.87,0,0,0-3.84,3.84,4.71,4.71,0,0,0,.12.85,11.34,11.34,0,0,0,.19,5.46,8.85,8.85,0,0,0,.83,3.47c1.81,3.89,6.44,5.8,10.55,5.41a24.66,24.66,0,0,0,12.66-5.24C346.16,93,348,89.15,349,85.17a16,16,0,0,0,.76-6.78,5.59,5.59,0,0,0-1.62-3.08,3.29,3.29,0,0,0-1.82-1.13c-1.9-.44-4.33.57-4.73,2.68-.05.23-.09.46-.15.68,0,0-.09.3-.15.48s-.13.31-.15.34c-.1.21-.22.4-.34.6s-.26.39-.4.58l-.14.16c-.36.38-.73.76-1.12,1.11l-.54.46,0,0-.16.11c-.4.27-.79.54-1.2.79S336.22,82.78,335.7,83Z" fill="#f3c6ba"/></svg>